# Blender v2.79 (sub 0) OBJ File: ''
# www.blender.org
o Cube.001
v 1.000000 2.000000 1.000000
v -1.000000 2.000000 1.000000
v -1.000000 0.000000 1.000000
v -1.000000 0.000000 -1.000000
v -1.000000 2.000000 -1.000000
v 0.999999 2.000001 -1.000000
v 1.000000 0.000000 1.000000
v 1.000000 0.000001 -1.000000
vt 0.000000 0.333334
vt 0.333333 0.333333
vt 0.333333 0.666667
vt 1.000000 0.333333
vt 0.666667 0.333333
vt 0.666667 0.000000
vt 0.666667 0.000000
vt 0.666667 0.333333
vt 0.333333 0.333333
vt 0.333333 0.666667
vt 0.000000 0.000000
vt 0.333333 0.000000
vt 0.333333 0.333333
vt 0.333333 1.000000
vt 0.000000 1.000000
vt 0.000000 0.666667
vt 0.000000 0.666667
vt 1.000000 0.000000
vt 0.333333 0.000000
vt 0.666667 0.666667
vt 0.000000 0.333333
vt 0.333333 0.666667
vn 0.0000 0.0000 1.0000
vn 0.0000 0.0000 -1.0000
vn 1.0000 0.0000 -0.0000
vn -0.0000 1.0000 0.0000
vn -1.0000 0.0000 0.0000
vn 0.0000 -1.0000 -0.0000
s 1
f 1/1/1 2/2/1 3/3/1
f 4/4/2 5/5/2 6/6/2
f 7/7/3 8/8/3 6/9/3
f 1/10/4 6/9/4 5/5/4
f 5/11/5 4/12/5 3/13/5
f 7/14/6 3/15/6 4/16/6
f 7/17/1 1/1/1 3/3/1
f 8/18/2 4/4/2 6/6/2
f 1/19/3 7/7/3 6/9/3
f 2/20/4 1/10/4 5/5/4
f 2/21/5 5/11/5 3/13/5
f 8/22/6 7/14/6 4/16/6
